<svg width="69" height="171" viewBox="0 0 69 171" fill="none" xmlns="http://www.w3.org/2000/svg">
<mask id="path-1-inside-1_1_24" fill="white">
<path d="M0 42.8753C0 39.8339 1.53608 36.9982 4.08359 35.3368L55.0836 2.07592C61.0701 -1.82834 69 2.46727 69 9.61441V128.125C69 131.166 67.4639 134.002 64.9164 135.663L13.9164 168.924C7.92989 172.828 0 168.533 0 161.386V42.8753Z"/>
</mask>
<path d="M0 42.8753C0 39.8339 1.53608 36.9982 4.08359 35.3368L55.0836 2.07592C61.0701 -1.82834 69 2.46727 69 9.61441V128.125C69 131.166 67.4639 134.002 64.9164 135.663L13.9164 168.924C7.92989 172.828 0 168.533 0 161.386V42.8753Z" stroke="black" stroke-width="2" mask="url(#path-1-inside-1_1_24)"/>
</svg>
